<?xml version="1.0" encoding="utf-8"?>
<!-- Generator: Adobe Illustrator 23.0.1, SVG Export Plug-In . SVG Version: 6.00 Build 0)  -->
<svg version="1.1" xmlns="http://www.w3.org/2000/svg" xmlns:xlink="http://www.w3.org/1999/xlink" x="0px" y="0px"
	 viewBox="0 0 1280 2228" style="enable-background:new 0 0 1280 2228;" xml:space="preserve">
<style type="text/css">
	.st0{fill:#0A0A0A;}
	.st1{fill:#FFFFFF;}
</style>
<g id="Layer_1">
	<rect class="st0" width="1280" height="2228"/>
	<g>
		<polygon class="st1" points="599.34,1078.7 635.26,1115.25 635.26,1051.02 611.32,1023.87 616.99,1060.94 582.33,1032.74 		"/>
		<polygon class="st1" points="678.75,1078.7 642.83,1115.25 642.83,1051.02 666.77,1023.87 661.1,1060.94 695.76,1032.74 		"/>
	</g>
</g>
<g transform="matrix(1 0 0 1 640 1114)" id="Layer_1"  >
<rect style="stroke: none; stroke-width: 1; stroke-dasharray: none; stroke-linecap: butt; stroke-dashoffset: 0; stroke-linejoin: miter; stroke-miterlimit: 4; fill: rgb(10,10,10); fill-rule: nonzero; opacity: 1;" vector-effect="non-scaling-stroke"  x="-640" y="-1114" rx="0" ry="0" width="1280" height="2228" />
</g>
<g transform="matrix(1 0 0 1 608.8 1069.56)" id="Layer_1"  >
<polygon style="stroke: none; stroke-width: 1; stroke-dasharray: none; stroke-linecap: butt; stroke-dashoffset: 0; stroke-linejoin: miter; stroke-miterlimit: 4; fill: rgb(255,255,255); fill-rule: nonzero; opacity: 1;" vector-effect="non-scaling-stroke"  points="-9.46,9.14 26.46,45.69 26.46,-18.54 2.52,-45.69 8.19,-8.62 -26.47,-36.82 " />
</g>
<g transform="matrix(1 0 0 1 669.3 1069.56)" id="Layer_1"  >
<polygon style="stroke: none; stroke-width: 1; stroke-dasharray: none; stroke-linecap: butt; stroke-dashoffset: 0; stroke-linejoin: miter; stroke-miterlimit: 4; fill: rgb(255,255,255); fill-rule: nonzero; opacity: 1;" vector-effect="non-scaling-stroke"  points="9.45,9.14 -26.47,45.69 -26.47,-18.54 -2.53,-45.69 -8.2,-8.62 26.46,-36.82 " />
</g>
<g transform="matrix(1 0 0 1 640 1253.53)" id="svgGroup"  >
<path style="stroke: rgb(255,255,255); stroke-width: 0.9448818897637796; stroke-dasharray: none; stroke-linecap: round; stroke-dashoffset: 0; stroke-linejoin: miter; stroke-miterlimit: 4; fill: rgb(255,255,255); fill-rule: evenodd; opacity: 1;" vector-effect="non-scaling-stroke"  transform=" translate(-348.45, -37.6)" d="M 521.8 74 L 512.8 74 L 512.8 22 L 521.5 22 L 521.5 30.7 Q 524.3 26.5 528.6 23.65 C 531.3343437841324 21.846327715969995 534.5267602037131 20.86070991027246 537.802 20.809 C 538.0012800773969 20.803142234929943 538.200633898278 20.800141926588925 538.4 20.8 C 539.8837452051379 20.79016600654327 541.3643523574632 20.937656870709702 542.817 21.24 Q 545.803 21.882 548.085 23.463 C 548.242438730796 23.57192929598769 548.3974758151934 23.684289505540175 548.55 23.799999999999994 C 551.1081041943626 25.746981126489075 553.0092076401045 28.43009133102469 553.998 31.488999999999994 C 554.0328851128465 31.592374276972993 554.0668863538605 31.696044727515428 554.1 31.80000000000001 Q 557.2 27.2 561.45 24 C 563.4518413003882 22.511830305662546 565.7800456953755 21.52308910773244 568.241 21.116 C 569.482285828059 20.900458575021517 570.7401505267518 20.794716291226113 572 20.8 C 573.6439592469476 20.785992236423994 575.2840733079073 20.96114353344138 576.888 21.322 Q 580.474 22.162 582.963 24.351 C 583.5810982467614 24.895824616475508 584.1459752057432 25.498203780202974 584.65 26.15 C 586.2924472689198 28.303094106750127 587.4554536401209 30.782537768835994 588.061 33.42199999999999 Q 588.8 36.472 588.8 40.1 L 588.8 74 L 579.8 74 L 579.8 40.8 C 579.8078253057912 39.56230324814225 579.6949580454256 38.32679190247848 579.463 37.11099999999999 Q 579.027 34.905 578.028 33.161 C 577.8079720089609 32.776317191941395 577.5648607866077 32.405305422663474 577.3 32.05 C 575.9383417175688 30.15325719918862 573.8137726914679 28.9486159623008 571.487 28.754 C 571.1258201362074 28.717534533986832 570.7630156817916 28.69951112962763 570.4 28.7 C 567.9835418268208 28.707865137454075 565.6264810006599 29.449612197262386 563.641 30.826999999999998 C 563.0855927153037 31.200966218532407 562.5542140012057 31.609436468275902 562.05 32.05000000000001 Q 558.2 35.4 555.3 39.9 L 555.3 74 L 546.3 74 L 546.3 40.8 C 546.3078253057912 39.56230324814225 546.1949580454256 38.32679190247848 545.963 37.11099999999999 Q 545.527 34.905 544.528 33.161 C 544.3079720089609 32.776317191941395 544.0648607866077 32.405305422663474 543.8 32.05 C 542.4383417175688 30.15325719918862 540.3137726914679 28.9486159623008 537.987 28.754 C 537.6258201362074 28.717534533986832 537.2630156817916 28.69951112962763 536.9 28.7 C 534.6646668056732 28.70990832522032 532.4763806800561 29.34294947692598 530.581 30.528000000000002 C 529.8859709030281 30.951696187541575 529.223772175316 31.42703520359745 528.6 31.95 Q 524.7 35.2 521.8 39.6 L 521.8 74 Z M 0 68.1 L 4.8 60.1 Q 8.4 63.1 12.9 65 C 14.623224191018913 65.71612482640303 16.426088216866674 66.2230754184012 18.269999999999996 66.51 C 19.96682011946075 66.77696887304066 21.682322403179132 66.90738717531164 23.399999999999995 66.9 C 24.922556013594335 66.90857077628431 26.443271502481046 66.79285325722672 27.946999999999992 66.554 Q 30.37 66.154 32.331 65.293 C 33.19995256618274 64.91528775648698 34.027380497430045 64.44845620191933 34.8 63.900000000000006 Q 38.848 61.008 38.995 56.166 C 38.9985095360149 56.04403213718737 39.00017639284763 55.92201821703206 39.00000000000001 55.800000000000004 C 39.0061447072533 54.82552766215171 38.89296957412876 53.853967839809656 38.663 52.907 C 38.46938396076359 52.12199582065081 38.17952164014486 51.36392020345907 37.8 50.65 C 37.471597727295546 50.04950113416053 37.0683824040363 49.49306398806277 36.6 48.994 Q 35.33 47.613 33.184 46.271 C 33.17267208753213 46.26399122715883 33.161338750802564 46.25699122506116 33.14999999999999 46.249999999999986 Q 30.034 44.308 24.265 42.08 C 23.84424954630758 41.91759574064465 23.422576017912082 41.75759313698469 22.99999999999997 41.59999999999998 Q 15.8 38.8 11.5 35.95 C 10.39894669168934 35.228366345013825 9.36510605531564 34.409058517936195 8.411000000000001 33.50200000000001 Q 6.694 31.853 5.638 29.987 C 5.537912435354909 29.810222446321568 5.441887250691908 29.631175487418684 5.349999999999998 29.45 Q 3.5 25.8 3.5 20.8 Q 3.5 15.8 6.25 11.75 Q 9 7.7 14.35 5.25 C 16.235220998551423 4.401983684408846 18.21636143763138 3.7858154292034714 20.249999999999993 3.4150000000000027 Q 23.493 2.8 27.3 2.8 Q 33.5 2.8 38.45 4.05 Q 43.4 5.3 48.1 7.6 L 44.6 15.7 C 43.275641804274024 14.927471403056085 41.896641972322605 14.25267725358689 40.47399999999997 13.68099999999999 C 39.221645523808036 13.175653670287625 37.94547385203995 12.731463164240731 36.64999999999999 12.349999999999996 Q 32.1 11 27.1 11 C 25.75158172098433 10.993263154090055 24.40453069192557 11.08685478886337 23.069999999999983 11.280000000000005 Q 20.938 11.6 19.2 12.287 C 18.32015697403765 12.62973180902975 17.48157202980343 13.070156621741562 16.699999999999996 13.600000000000005 C 15.885783901147379 14.144418305209102 15.156847673629834 14.806628054202159 14.536999999999999 15.565000000000005 C 13.454329232424133 16.90329349203282 12.875073021855584 18.57878411942566 12.900000000000002 20.3 C 12.894610381263352 21.149402291023677 12.992665258893421 21.99630092589711 13.191999999999998 22.822000000000003 C 13.369610702525714 23.54692331010939 13.641246504176886 24.245511423761783 14 24.9 Q 15.056 26.819 18.091 28.647 C 18.17700607083722 28.698551974866266 18.26334117204493 28.749553019209046 18.349999999999998 28.8 C 19.073557646699623 29.21858959922332 19.81275742458415 29.609538218212794 20.56599999999998 29.971999999999994 Q 22.835 31.075 26.046 32.323 C 26.72846708247405 32.587777710396814 27.413158166369822 32.84678694709934 28.09999999999993 33.09999999999996 C 29.781264679910684 33.721226187580335 31.44150693736995 34.39792999239851 33.07800000000001 35.12900000000001 Q 37.464 37.1 40.45 39.2 C 41.52414087685665 39.94809774614436 42.54035396528881 40.77611084484385 43.489999999999995 41.67699999999999 Q 45.713 43.806 46.9 46.15 C 47.81845972169405 47.98759056827451 48.40770937792084 49.97195055360344 48.641 52.013 C 48.74841037820662 52.90461627382405 48.80150834935017 53.80193859119957 48.8 54.699999999999996 C 48.81355386114683 56.554629803685536 48.589395056055544 58.40335182288672 48.133 60.201 C 47.6182786377421 62.20839396250257 46.74306094706451 64.10554605313513 45.55 65.8 Q 42.3 70.4 36.55 72.8 C 34.174180635174096 73.7771852947617 31.68449465757885 74.45050927574697 29.139999999999997 74.804 C 27.238643334260352 75.07352229683431 25.320355449146767 75.2058641091174 23.4 75.19999999999999 Q 16.1 75.2 10.1 73.25 C 8.258352239541491 72.65955349644744 6.464195141256873 71.93012350046142 4.732999999999992 71.068 C 3.0617289520299735 70.2364340130951 1.4764119331560703 69.24230324782619 -4.440892098500626e-15 68.1 Z M 212.7 74 L 203.7 74 L 203.7 22 L 212.4 22 L 212.4 30.7 Q 215.2 26.5 219.55 23.65 C 221.69589289651452 22.261255993514443 224.1226232980606 21.364806893590654 226.656 21.025 C 227.73053840607474 20.872302565901457 228.8146701277577 20.797108472998058 229.9 20.800000000000008 C 231.60221482553845 20.786526210302682 233.30075180102 20.96023640838747 234.965 21.318 Q 240.059 22.456 243.05 26.1 Q 247.175 31.126 247.388 39.209 C 247.39591912630559 39.50593428474481 247.39991947459015 39.802960144872735 247.4 40.09999999999998 L 247.4 74 L 238.4 74 L 238.4 41.1 C 238.408142604196 39.84483630589393 238.293598178818 38.59188105636463 238.058 37.35900000000001 Q 237.619 35.145 236.619 33.397 C 236.36051552143942 32.94456991051747 236.0701130951844 32.511138441181735 235.75 32.099999999999994 C 234.24175783354022 30.12630450596307 231.95208495999216 28.90322450835168 229.473 28.747 C 229.11620867689976 28.71540814405348 228.7581871277543 28.699725932674323 228.4 28.7 C 225.97955607261963 28.71045828435737 223.60916712140076 29.39018436118521 221.551 30.663999999999998 C 220.90678394219614 31.0521020460865 220.28848009478807 31.48167457324305 219.7 31.95 Q 215.6 35.2 212.7 39.6 L 212.7 74 Z M 103.9 51.7 L 67.5 51.7 C 67.69891660095895 53.410905036162035 68.08076718642269 55.09553997203147 68.639 56.725 Q 69.975 60.538 72.6 63.1 Q 76.8 67.2 83.7 67.2 Q 88.2 67.2 91.8 66.25 Q 95.4 65.3 98.7 63.8 L 100.8 71.5 C 99.38696666383929 72.12367705723305 97.93963351106322 72.66655219135392 96.465 73.126 C 95.2232884402731 73.51443743702694 93.9673999166312 73.8560124299112 92.7 74.15 C 91.02264501227351 74.5353009123803 89.32157668820241 74.80890165028566 87.608 74.969 C 85.94334879011984 75.12643361438667 84.27207553097651 75.20352309578885 82.6 75.2 C 79.98397268326684 75.22441304284226 77.37718100227124 74.88619646145824 74.854 74.195 C 71.0053143436559 73.13393862468195 67.53644816447184 71.00317266395763 64.85 68.05 C 62.394078408914396 65.31991175590528 60.61150226704788 62.05271168032285 59.645 58.510000000000005 Q 58.3 53.845 58.3 48 C 58.28587619525206 45.36980000915283 58.56527134999383 42.74623590304224 59.132999999999996 40.178000000000004 C 59.60609316273653 38.062255590635765 60.31624601431824 36.00660293381347 61.24999999999999 34.05 C 62.489870677558194 31.411181443010296 64.18820296880776 29.013336688897585 66.266 26.968000000000004 C 67.26227409783063 25.9989501607506 68.34474623548722 25.12266319217145 69.5 24.35 C 72.5582611281085 22.317594498176685 76.09501826734586 21.12063370400258 79.75899999999999 20.878 C 80.43806117897795 20.825486277615887 81.11891153934958 20.799466518620797 81.80000000000001 20.800000000000004 Q 89.3 20.8 94.25 24.05 Q 99.2 27.3 101.7 32.8 C 103.09938483123089 35.91393974740402 103.9213988306436 39.256209364142244 104.126 42.663999999999994 C 104.17560359926678 43.40829912472106 104.20028407950504 44.15404985192065 104.19999999999999 44.89999999999999 C 104.20258734326453 47.135548931033284 104.1054909134532 49.37010147552263 103.90899999999999 51.59700000000002 C 103.90602556582475 51.63133556244486 103.90302556499307 51.6656689052965 103.90000000000003 51.7 Z M 191.4 51.7 L 155 51.7 C 155.19891660095897 53.410905036162035 155.5807671864227 55.09553997203146 156.139 56.724999999999994 Q 157.475 60.538 160.1 63.1 Q 164.3 67.2 171.2 67.2 Q 175.7 67.2 179.3 66.25 Q 182.9 65.3 186.2 63.8 L 188.3 71.5 C 186.8869666638393 72.12367705723305 185.43963351106322 72.66655219135392 183.965 73.126 C 182.72328844027308 73.51443743702694 181.4673999166312 73.8560124299112 180.2 74.15 C 178.5226450122735 74.53530091238028 176.8215766882024 74.80890165028566 175.108 74.969 C 173.44334879011984 75.12643361438667 171.7720755309765 75.20352309578885 170.1 75.2 C 167.48397268326684 75.22441304284226 164.87718100227124 74.88619646145823 162.354 74.195 C 158.5053143436559 73.13393862468195 155.03644816447184 71.00317266395763 152.35 68.05 C 149.8940784089144 65.31991175590528 148.11150226704788 62.05271168032285 147.145 58.510000000000005 Q 145.8 53.845 145.8 48 C 145.7858761952521 45.36980000915283 146.06527134999385 42.74623590304224 146.633 40.178000000000004 C 147.10609316273653 38.06225559063577 147.81624601431827 36.00660293381348 148.75 34.05000000000001 C 149.9898706775582 31.4111814430103 151.68820296880776 29.01333668889759 153.766 26.96800000000001 C 154.7622740978306 25.998950160750603 155.84474623548724 25.122663192171448 157 24.35 C 160.05826112810848 22.31759449817669 163.59501826734586 21.12063370400258 167.259 20.878 C 167.93806117897793 20.825486277615887 168.61891153934957 20.799466518620797 169.3 20.800000000000004 Q 176.8 20.8 181.75 24.05 Q 186.7 27.3 189.2 32.8 C 190.59938483123088 35.91393974740402 191.4213988306436 39.25620936414225 191.626 42.66400000000001 C 191.67560359926676 43.40829912472106 191.70028407950502 44.15404985192065 191.7 44.899999999999984 C 191.70258734326453 47.135548931033284 191.6054909134532 49.37010147552263 191.409 51.59700000000002 C 191.40602556582473 51.63133556244486 191.40302556499304 51.6656689052965 191.4 51.7 Z M 365.1 74 L 355.6 74 L 355.6 4.2 Q 359.7 3.7 364.65 3.45 C 367.62447415147676 3.301789496005939 370.60187740959486 3.2197692046849014 373.58 3.2040000000000193 C 374.01999506284824 3.201358352235378 374.4599970079555 3.200025013007761 374.9 3.199999999999981 Q 382.47 3.2 388.072 5.282 C 388.6220455169416 5.4862412088791395 389.16502282824825 5.7090353390712965 389.7 5.949999999999989 C 391.5096574703109 6.751600005037801 393.21598807366496 7.7686160218735845 394.782 8.979000000000003 C 396.42096036740134 10.250476738399568 397.84509274989466 11.776911660460279 399 13.499999999999995 Q 402.2 18.3 402.2 24.5 C 402.21477332386434 26.56191591514739 401.97700390438865 28.617882562082762 401.492 30.62199999999999 C 400.91845350631553 32.98374272069801 399.90326883837577 35.215656071536166 398.5 37.2 C 396.5198738739804 39.955411492167066 393.93738696658613 42.2229109221795 390.949 43.83 C 390.0572663064395 44.319495186466554 389.13957862584545 44.760145509632835 388.2 45.14999999999999 C 385.6032970462708 46.215051476241136 382.8872036317716 46.961817671549134 380.111 47.37400000000001 C 377.7243200310639 47.73346809884415 375.313580695844 47.90931734171277 372.9 47.89999999999999 Q 368.7 47.9 365.1 47.6 L 365.1 74 Z M 298.5 26.2 L 298.5 22 L 306.7 22 L 306.7 61.4 C 306.6971333806044 61.94700767500264 306.73121091200875 62.49358455125254 306.802 63.036 Q 307.134 65.47 308.55 66.35 Q 310.4 67.5 312.6 67.5 L 310.7 74.5 C 309.2644632186311 74.51599724876732 307.8323009484478 74.35750238557236 306.435 74.028 Q 300.798 72.628 299.203 67.08 C 299.16683356055006 66.95383733495494 299.1324966248365 66.82715737795344 299.1 66.7 C 298.1907735305457 67.95150954163647 297.14795956823366 69.10028144995832 295.99 70.126 C 295.0009069936043 71.00595307230141 293.9516992342538 71.81591473111212 292.85 72.55 Q 288.9 75.2 282.8 75.2 Q 276.3 75.2 271 71.9 C 267.9772157726711 70.00169696948242 265.43895382867953 67.42440064513002 263.587 64.373 C 263.21862620935804 63.778533905668745 262.8727156077952 63.170438412275345 262.55 62.55 C 261.26942670804914 60.05396226485669 260.3822903409327 57.37501282468974 259.92 54.60799999999999 C 259.5650578806307 52.52426643959271 259.39107571095093 50.413728888938934 259.4 48.300000000000004 C 259.383287158151 45.51270805030839 259.71826502779794 42.734441245784396 260.397 40.03100000000002 C 260.90279279173564 38.047638390362856 261.624783798218 36.1257942388764 262.55 34.3 Q 265.7 28.1 271.25 24.45 C 274.59167680853477 22.267717937141114 278.4578537135806 21.02239110198298 282.445 20.844000000000005 C 282.96281216351724 20.814612807365297 283.481354610351 20.79994022366067 284 20.799999999999997 C 285.6109024337126 20.791887210699695 287.2180493995555 20.956155465447925 288.794 21.289999999999992 C 289.9434979449027 21.537061801408075 291.06713808386894 21.891966016933786 292.15 22.349999999999998 C 293.6475137789801 22.979088764384645 295.0827870702498 23.747112307695275 296.437 24.643999999999995 C 297.1544222370586 25.12199171916797 297.8432657416525 25.641546005715742 298.5 26.19999999999999 Z M 446.8 26.2 L 446.8 22 L 455 22 L 455 61.4 C 454.9971333806044 61.94700767500264 455.0312109120087 62.49358455125253 455.102 63.036 Q 455.434 65.47 456.85 66.35 Q 458.7 67.5 460.9 67.5 L 459 74.5 C 457.5644632186311 74.51599724876732 456.13230094844783 74.35750238557236 454.735 74.028 Q 449.098 72.628 447.503 67.08 C 447.46683356055 66.95383733495494 447.43249662483646 66.82715737795344 447.4 66.7 C 446.49077353054565 67.95150954163647 445.44795956823367 69.10028144995832 444.29 70.126 C 443.3009069936043 71.00595307230141 442.2516992342538 71.81591473111212 441.15 72.55 Q 437.2 75.2 431.1 75.2 Q 424.6 75.2 419.3 71.9 C 416.2772157726711 70.00169696948242 413.73895382867954 67.42440064513002 411.887 64.373 C 411.51862620935805 63.778533905668745 411.1727156077952 63.170438412275345 410.85 62.55 C 409.56942670804915 60.05396226485669 408.6822903409327 57.37501282468974 408.22 54.60799999999999 C 407.86505788063073 52.52426643959271 407.69107571095094 50.413728888938934 407.7 48.300000000000004 C 407.683287158151 45.51270805030839 408.01826502779795 42.734441245784396 408.697 40.03100000000002 C 409.20279279173565 38.047638390362856 409.924783798218 36.1257942388764 410.85 34.3 Q 414 28.1 419.55 24.45 C 422.8916768085348 22.267717937141114 426.75785371358063 21.02239110198298 430.745 20.844000000000005 C 431.26281216351725 20.814612807365297 431.781354610351 20.79994022366067 432.3 20.799999999999997 C 433.91090243371264 20.791887210699695 435.51804939955554 20.956155465447925 437.094 21.289999999999992 C 438.2434979449027 21.537061801408075 439.36713808386895 21.891966016933786 440.45 22.349999999999998 C 441.9475137789801 22.979088764384645 443.38278707024983 23.747112307695275 444.737 24.643999999999995 C 445.4544222370586 25.12199171916797 446.1432657416525 25.641546005715742 446.8 26.19999999999999 Z M 639.9 26.2 L 639.9 22 L 648.1 22 L 648.1 61.4 C 648.0971333806044 61.94700767500264 648.1312109120088 62.49358455125253 648.202 63.036 Q 648.534 65.47 649.95 66.35 Q 651.8 67.5 654 67.5 L 652.1 74.5 C 650.6644632186311 74.51599724876732 649.2323009484479 74.35750238557236 647.835 74.028 Q 642.198 72.628 640.603 67.08 C 640.56683356055 66.95383733495494 640.5324966248364 66.82715737795344 640.5 66.7 C 639.5907735305457 67.95150954163647 638.5479595682336 69.10028144995832 637.39 70.126 C 636.4009069936043 71.00595307230141 635.3516992342538 71.81591473111212 634.25 72.55 Q 630.3 75.2 624.2 75.2 Q 617.7 75.2 612.4 71.9 C 609.3772157726711 70.00169696948242 606.8389538286796 67.42440064513002 604.987 64.373 C 604.618626209358 63.778533905668745 604.2727156077952 63.170438412275345 603.95 62.55 C 602.6694267080492 60.05396226485669 601.7822903409327 57.37501282468974 601.32 54.60799999999999 C 600.9650578806308 52.52426643959271 600.791075710951 50.41372888893893 600.8 48.300000000000004 C 600.783287158151 45.51270805030838 601.118265027798 42.734441245784375 601.797 40.031 C 602.3027927917357 38.047638390362856 603.0247837982181 36.1257942388764 603.95 34.3 Q 607.1 28.1 612.65 24.45 C 615.9916768085347 22.267717937141104 619.8578537135807 21.022391101982972 623.845 20.844000000000005 C 624.3628121635172 20.814612807365297 624.881354610351 20.799940223660673 625.4 20.799999999999997 C 627.0109024337125 20.791887210699695 628.6180493995555 20.956155465447925 630.194 21.289999999999992 C 631.3434979449027 21.537061801408075 632.4671380838689 21.891966016933786 633.55 22.349999999999998 C 635.04751377898 22.979088764384645 636.4827870702497 23.747112307695275 637.837 24.643999999999995 C 638.5544222370586 25.12199171916797 639.2432657416524 25.641546005715742 639.9 26.19999999999999 Z M 115.7 57.7 L 115.7 0 L 124.7 0 L 124.7 56.8 C 124.69502758200035 57.76587933322742 124.75784858162258 58.73091681678604 124.888 59.68799999999999 Q 125.35 62.952 126.95 64.8 C 128.12518072372157 66.15641337407716 129.75530863682886 67.03691003918485 131.534 67.276 C 132.08526406662625 67.36059178085915 132.64228713980327 67.40205088114365 133.2 67.4 Q 135.1 67.4 136.95 66.95 C 137.44215476214518 66.83139329091512 137.93010692740015 66.69598072830847 138.413 66.544 Q 139.348 66.247 140.1 65.9 L 142.3 73.2 Q 140.901 73.822 138.988 74.323 C 138.61023923714131 74.42167823476865 138.2308527316608 74.51402451070723 137.85 74.6 C 136.81036304493242 74.83204153855515 135.75632953469864 74.99407204646748 134.695 75.085 C 133.79880102666198 75.16304055738034 132.8995893154301 75.20141137251639 132 75.19999999999999 C 130.35385141902194 75.2089094596826 128.71243370843928 75.0229492527986 127.11 74.646 C 125.93519597564772 74.36577164926518 124.79246903670207 73.964979444286 123.7 73.45 C 121.50499883775261 72.40485173723634 119.65662838544004 70.75086390526086 118.375 68.685 C 118.19047128302778 68.3957576617254 118.01537910573411 68.10060227714465 117.85 67.8 Q 116.116 64.654 115.78 60.012 C 115.7255670881981 59.242544655278465 115.69888310301317 58.47137748343397 115.70000000000002 57.700000000000024 Z M 481.9 74 L 472.9 74 L 472.9 22 L 481.6 22 L 481.6 33.3 Q 482.9 30 485.1 27.15 Q 487.3 24.3 490.6 22.55 C 492.06412725505686 21.784641456384655 493.6459460358923 21.269536366215164 495.28 21.026000000000003 C 496.2792670664521 20.87232729964718 497.28899084824803 20.79676518882404 498.3 20.8 Q 499.8 20.8 501.3 20.95 C 501.65284971881925 20.98479961331672 502.00465456412894 21.029483830635673 502.355 21.083999999999996 Q 502.855 21.162 503.282 21.262 C 503.45602546269964 21.3027391506326 503.6287719501496 21.34876041562893 503.8 21.4 L 501.1 30.7 C 500.41072901417124 30.414722000717312 499.69103288528675 30.209382126182437 498.955 30.088 Q 497.859 29.9 496.6 29.9 C 494.2640066290601 29.906473260457762 491.9732058790803 30.54430405751095 489.97 31.746000000000002 C 489.8286773804369 31.828460116352026 489.68866007401783 31.91313724928166 489.55 32 Q 486.222 34.086 484.078 38.442 C 484.0686395163141 38.461320214509094 484.0593061737743 38.480653566912906 484.05 38.500000000000014 Q 482.287 42.107 481.97 47.328 C 481.9226670526601 48.11777605576608 481.8993229655003 48.90880712352196 481.9 49.699999999999996 L 481.9 74 Z M 675 74 L 666 74 L 666 22 L 674.7 22 L 674.7 33.3 Q 676 30 678.2 27.15 Q 680.4 24.3 683.7 22.55 C 685.1641272550569 21.784641456384655 686.7459460358923 21.269536366215164 688.38 21.026000000000003 C 689.3792670664521 20.872327299647182 690.388990848248 20.796765188824043 691.4 20.8 Q 692.9 20.8 694.4 20.95 C 694.7528497188192 20.984799613316717 695.104654564129 21.029483830635673 695.455 21.084 Q 695.955 21.162 696.382 21.262 C 696.5560254626996 21.3027391506326 696.7287719501496 21.34876041562893 696.9 21.4 L 694.2 30.7 C 693.5107290141713 30.41472200071731 692.7910328852868 30.209382126182433 692.055 30.088 Q 690.959 29.9 689.7 29.9 C 687.3640066290601 29.906473260457762 685.0732058790803 30.54430405751095 683.07 31.746000000000002 C 682.9286773804369 31.828460116352026 682.7886600740178 31.913137249281665 682.65 32.00000000000001 Q 679.322 34.086 677.178 38.442 C 677.1686395163141 38.46132021450909 677.1593061737743 38.48065356691289 677.15 38.49999999999999 Q 675.387 42.107 675.07 47.328 C 675.02266705266 48.11777605576608 674.9993229655004 48.90880712352196 675 49.699999999999996 L 675 74 Z M 297.7 60.7 L 297.7 32.8 Q 295 30.9 291.75 29.75 Q 288.5 28.6 284.9 28.6 C 283.21352662169704 28.58650562469297 281.53561645583164 28.84101060660053 279.929 29.354000000000003 C 278.6965209438841 29.755823071778625 277.5257069249636 30.326590699283404 276.45 31.050000000000004 C 274.3838381312169 32.44994256188107 272.6667188101814 34.305622019401795 271.431 36.474 C 271.16951891592686 36.92297864473864 270.9256665412657 37.38199487939491 270.7 37.849999999999994 C 269.84523400216324 39.6480031847446 269.25479829568246 41.56009873847603 268.947 43.527 C 268.71048368759756 45.006153587141924 268.5944358828801 46.502066643342275 268.6 48.00000000000002 Q 268.6 53.6 270.7 57.95 C 271.4904648475511 59.618876298840775 272.5386173793463 61.15297205207356 273.806 62.495999999999995 C 274.6168428898659 63.3457577591756 275.52049921527174 64.10182359342387 276.5 64.75 Q 280.2 67.2 284.8 67.2 Q 288.6 67.2 292 65.35 Q 295.4 63.5 297.7 60.7 Z M 446 60.7 L 446 32.8 Q 443.3 30.9 440.05 29.75 Q 436.8 28.6 433.2 28.6 C 431.51352662169705 28.58650562469297 429.83561645583166 28.84101060660053 428.229 29.354000000000003 C 426.9965209438841 29.755823071778625 425.8257069249636 30.326590699283404 424.75 31.050000000000004 C 422.68383813121693 32.44994256188107 420.9667188101814 34.305622019401795 419.731 36.474 C 419.46951891592687 36.92297864473864 419.2256665412657 37.38199487939491 419 37.849999999999994 C 418.14523400216325 39.6480031847446 417.5547982956825 41.56009873847603 417.247 43.527 C 417.01048368759757 45.00615358714191 416.89443588288003 46.50206664334226 416.9 48 Q 416.9 53.6 419 57.95 C 419.7904648475511 59.618876298840775 420.8386173793463 61.15297205207356 422.106 62.495999999999995 C 422.9168428898659 63.3457577591756 423.82049921527175 64.10182359342387 424.8 64.75 Q 428.5 67.2 433.1 67.2 Q 436.9 67.2 440.3 65.35 Q 443.7 63.5 446 60.7 Z M 639.1 60.7 L 639.1 32.8 Q 636.4 30.9 633.15 29.75 Q 629.9 28.6 626.3 28.6 C 624.613526621697 28.58650562469297 622.9356164558316 28.84101060660053 621.329 29.354000000000003 C 620.0965209438841 29.75582307177863 618.9257069249636 30.326590699283404 617.85 31.05 C 615.783838131217 32.44994256188107 614.0667188101814 34.305622019401795 612.831 36.474 C 612.5695189159269 36.92297864473864 612.3256665412657 37.38199487939491 612.1 37.849999999999994 C 611.2452340021632 39.648003184744596 610.6547982956824 41.56009873847603 610.347 43.527 C 610.1104836875976 45.006153587141924 609.99443588288 46.502066643342275 610 48.00000000000002 Q 610 53.6 612.1 57.95 C 612.8904648475511 59.618876298840775 613.9386173793463 61.15297205207356 615.206 62.495999999999995 C 616.0168428898659 63.3457577591756 616.9204992152718 64.10182359342387 617.9 64.75 Q 621.6 67.2 626.2 67.2 Q 630 67.2 633.4 65.35 Q 636.8 63.5 639.1 60.7 Z M 365.1 11.6 L 365.1 39.5 Q 366.2 39.637 367.631 39.751 C 368.0870922443924 39.78725322801204 368.54343717694576 39.82025406681611 369 39.84999999999999 Q 371.3 40 374.1 40 C 375.9021592665258 40.01055699424116 377.7019597690022 39.868044909844336 379.48 39.574 Q 382.359 39.08 384.663 38.011 C 385.8219848733747 37.478919104867174 386.9095061215819 36.80329190988886 387.9 36.00000000000001 C 390.7989385267968 33.69572436857517 392.56739918235604 30.2564235426658 392.755 26.557999999999993 C 392.78523849462454 26.139350472173696 392.80024840543183 25.71974007671545 392.8 25.300000000000008 C 392.8183157745751 23.67085927853991 392.5610222369253 22.050349520385225 392.039 20.506999999999998 C 391.2750198008662 18.33482357006353 389.90884484203826 16.42481455806421 388.1 14.999999999999996 C 386.58734702003926 13.802814685220689 384.8640216488583 12.899264441405272 383.019 12.336000000000002 Q 380.793 11.626 378.1 11.36 C 376.9699802192529 11.250887312398715 375.8352726456256 11.197489308933907 374.7 11.200000000000003 C 373.61388039165473 11.199506350344409 372.5277965679707 11.212507353758658 371.44199999999995 11.238999999999987 C 370.8278403485928 11.254186359085411 370.21381877883096 11.274520406726811 369.6 11.299999999999994 C 368.63819531877726 11.339460583757061 367.67707506854174 11.394134090881108 366.717 11.464000000000002 C 366.17752558840226 11.503504088971185 365.63849408131097 11.548840072251599 365.09999999999997 11.60000000000001 Z M 67.4 44.4 L 95.9 44.4 C 95.91037624282657 42.86233997373517 95.77510565980705 41.32715278773398 95.496 39.815000000000005 Q 95 37.231 93.896 35.207 C 93.40379317563236 34.29997530699173 92.800478270531 33.45782025850113 92.1 32.70000000000001 C 90.25077223093494 30.719469018613538 87.80754221611947 29.394136949091457 85.139 28.924 C 83.97255502085882 28.702033893849144 82.78735881283734 28.593527657228925 81.6 28.6 C 79.85169809088984 28.579676539627258 78.1159210011604 28.897155330491305 76.488 29.535 C 74.78100241618328 30.230421898691837 73.24854789697316 31.294057332591017 72 32.64999999999999 Q 68.2 36.7 67.4 44.4 Z M 154.9 44.4 L 183.4 44.4 C 183.41037624282657 42.86233997373517 183.27510565980705 41.32715278773398 182.996 39.815000000000005 Q 182.5 37.231 181.396 35.207 C 180.90379317563236 34.29997530699173 180.300478270531 33.45782025850112 179.6 32.699999999999996 C 177.75077223093496 30.71946901861354 175.3075422161195 29.394136949091457 172.639 28.924 C 171.47255502085883 28.702033893849144 170.28735881283734 28.59352765722892 169.1 28.599999999999998 C 167.35169809088984 28.579676539627258 165.6159210011604 28.897155330491305 163.988 29.535 C 162.28100241618327 30.230421898691837 160.74854789697315 31.294057332591017 159.5 32.64999999999999 Q 155.7 36.7 154.9 44.4 Z" stroke-linecap="round" />
</g>
</svg>
